<svg width="44" height="44" viewBox="0 0 44 44" fill="none" xmlns="http://www.w3.org/2000/svg">
<path d="M12.722 9.16667C12.7215 10.1391 12.3347 11.0716 11.6468 11.7589C10.9588 12.4461 10.026 12.832 9.05351 12.8315C8.08105 12.831 7.14861 12.4442 6.46132 11.7563C5.77403 11.0683 5.38819 10.1355 5.38867 9.163C5.38916 8.19054 5.77593 7.2581 6.46391 6.57081C7.15189 5.88352 8.08471 5.49768 9.05717 5.49817C10.0296 5.49866 10.9621 5.88543 11.6494 6.57341C12.3367 7.26138 12.7225 8.19421 12.722 9.16667ZM12.832 15.5467H5.49867V38.5H12.832V15.5467ZM24.4187 15.5467H17.122V38.5H24.3453V26.455C24.3453 19.745 33.0903 19.1217 33.0903 26.455V38.5H40.332V23.9617C40.332 12.65 27.3887 13.0717 24.3453 18.6267L24.4187 15.5467Z" fill="#D1D1D1"/>
</svg>
