<svg width="44" height="44" viewBox="0 0 44 44" fill="none" xmlns="http://www.w3.org/2000/svg">
<path d="M34.9264 9.00172C33.2454 7.30425 31.2433 5.95833 29.0369 5.04239C26.8304 4.12645 24.4638 3.65881 22.0748 3.66672C12.0648 3.66672 3.90643 11.8251 3.90643 21.8351C3.90643 25.0434 4.74977 28.1601 6.32643 30.9101L3.75977 40.3334L13.3848 37.8034C16.0431 39.2517 19.0314 40.0217 22.0748 40.0217C32.0848 40.0217 40.2431 31.8634 40.2431 21.8534C40.2431 16.9951 38.3548 12.4301 34.9264 9.00172ZM22.0748 36.9417C19.3614 36.9417 16.7031 36.2084 14.3748 34.8334L13.8248 34.5034L8.10477 36.0067L9.62643 30.4334L9.25977 29.8651C7.75194 27.458 6.95146 24.6754 6.94977 21.8351C6.94977 13.5117 13.7331 6.72839 22.0564 6.72839C26.0898 6.72839 29.8848 8.30506 32.7264 11.1651C34.1337 12.5655 35.249 14.2314 36.0074 16.0662C36.7659 17.9009 37.1525 19.868 37.1448 21.8534C37.1814 30.1767 30.3981 36.9417 22.0748 36.9417ZM30.3614 25.6484C29.9031 25.4284 27.6664 24.3284 27.2631 24.1634C26.8414 24.0167 26.5481 23.9434 26.2364 24.3834C25.9248 24.8417 25.0631 25.8684 24.8064 26.1617C24.5498 26.4734 24.2748 26.5101 23.8164 26.2717C23.3581 26.0517 21.8914 25.5567 20.1681 24.0167C18.8114 22.8067 17.9131 21.3217 17.6381 20.8634C17.3814 20.4051 17.6014 20.1667 17.8398 19.9284C18.0414 19.7267 18.2981 19.3967 18.5181 19.1401C18.7381 18.8834 18.8298 18.6817 18.9764 18.3884C19.1231 18.0767 19.0498 17.8201 18.9398 17.6001C18.8298 17.3801 17.9131 15.1434 17.5464 14.2267C17.1798 13.3467 16.7948 13.4567 16.5198 13.4384H15.6398C15.3281 13.4384 14.8514 13.5484 14.4298 14.0067C14.0264 14.4651 12.8531 15.5651 12.8531 17.8017C12.8531 20.0384 14.4848 22.2017 14.7048 22.4951C14.9248 22.8067 17.9131 27.3901 22.4598 29.3517C23.5414 29.8284 24.3848 30.1034 25.0448 30.3051C26.1264 30.6534 27.1164 30.5984 27.9048 30.4884C28.7848 30.3601 30.5998 29.3884 30.9664 28.3251C31.3514 27.2617 31.3514 26.3634 31.2231 26.1617C31.0948 25.9601 30.8198 25.8684 30.3614 25.6484Z" fill="#D1D1D1"/>
</svg>
